<svg width="24" height="23" viewBox="0 0 24 23" fill="none" xmlns="http://www.w3.org/2000/svg">
<path d="M10.0833 12.4583H4.33333C4.07917 12.4583 3.83541 12.5593 3.65569 12.739C3.47597 12.9187 3.375 13.1625 3.375 13.4167V19.1667C3.375 19.4208 3.47597 19.6646 3.65569 19.8443C3.83541 20.024 4.07917 20.125 4.33333 20.125H10.0833C10.3375 20.125 10.5813 20.024 10.761 19.8443C10.9407 19.6646 11.0417 19.4208 11.0417 19.1667V13.4167C11.0417 13.1625 10.9407 12.9187 10.761 12.739C10.5813 12.5593 10.3375 12.4583 10.0833 12.4583ZM9.125 18.2083H5.29167V14.375H9.125V18.2083ZM19.6667 2.875H13.9167C13.6625 2.875 13.4187 2.97597 13.239 3.15569C13.0593 3.33541 12.9583 3.57917 12.9583 3.83333V9.58333C12.9583 9.8375 13.0593 10.0813 13.239 10.261C13.4187 10.4407 13.6625 10.5417 13.9167 10.5417H19.6667C19.9208 10.5417 20.1646 10.4407 20.3443 10.261C20.524 10.0813 20.625 9.8375 20.625 9.58333V3.83333C20.625 3.57917 20.524 3.33541 20.3443 3.15569C20.1646 2.97597 19.9208 2.875 19.6667 2.875ZM18.7083 8.625H14.875V4.79167H18.7083V8.625ZM19.6667 15.3333H17.75V13.4167C17.75 13.1625 17.649 12.9187 17.4693 12.739C17.2896 12.5593 17.0458 12.4583 16.7917 12.4583C16.5375 12.4583 16.2937 12.5593 16.114 12.739C15.9343 12.9187 15.8333 13.1625 15.8333 13.4167V15.3333H13.9167C13.6625 15.3333 13.4187 15.4343 13.239 15.614C13.0593 15.7937 12.9583 16.0375 12.9583 16.2917C12.9583 16.5458 13.0593 16.7896 13.239 16.9693C13.4187 17.149 13.6625 17.25 13.9167 17.25H15.8333V19.1667C15.8333 19.4208 15.9343 19.6646 16.114 19.8443C16.2937 20.024 16.5375 20.125 16.7917 20.125C17.0458 20.125 17.2896 20.024 17.4693 19.8443C17.649 19.6646 17.75 19.4208 17.75 19.1667V17.25H19.6667C19.9208 17.25 20.1646 17.149 20.3443 16.9693C20.524 16.7896 20.625 16.5458 20.625 16.2917C20.625 16.0375 20.524 15.7937 20.3443 15.614C20.1646 15.4343 19.9208 15.3333 19.6667 15.3333ZM10.0833 2.875H4.33333C4.07917 2.875 3.83541 2.97597 3.65569 3.15569C3.47597 3.33541 3.375 3.57917 3.375 3.83333V9.58333C3.375 9.8375 3.47597 10.0813 3.65569 10.261C3.83541 10.4407 4.07917 10.5417 4.33333 10.5417H10.0833C10.3375 10.5417 10.5813 10.4407 10.761 10.261C10.9407 10.0813 11.0417 9.8375 11.0417 9.58333V3.83333C11.0417 3.57917 10.9407 3.33541 10.761 3.15569C10.5813 2.97597 10.3375 2.875 10.0833 2.875ZM9.125 8.625H5.29167V4.79167H9.125V8.625Z" fill="#646879"/>
<path d="M10.0833 12.4583H4.33333C4.07917 12.4583 3.83541 12.5593 3.65569 12.739C3.47597 12.9187 3.375 13.1625 3.375 13.4167V19.1667C3.375 19.4208 3.47597 19.6646 3.65569 19.8443C3.83541 20.024 4.07917 20.125 4.33333 20.125H10.0833C10.3375 20.125 10.5813 20.024 10.761 19.8443C10.9407 19.6646 11.0417 19.4208 11.0417 19.1667V13.4167C11.0417 13.1625 10.9407 12.9187 10.761 12.739C10.5813 12.5593 10.3375 12.4583 10.0833 12.4583ZM9.125 18.2083H5.29167V14.375H9.125V18.2083ZM19.6667 2.875H13.9167C13.6625 2.875 13.4187 2.97597 13.239 3.15569C13.0593 3.33541 12.9583 3.57917 12.9583 3.83333V9.58333C12.9583 9.8375 13.0593 10.0813 13.239 10.261C13.4187 10.4407 13.6625 10.5417 13.9167 10.5417H19.6667C19.9208 10.5417 20.1646 10.4407 20.3443 10.261C20.524 10.0813 20.625 9.8375 20.625 9.58333V3.83333C20.625 3.57917 20.524 3.33541 20.3443 3.15569C20.1646 2.97597 19.9208 2.875 19.6667 2.875ZM18.7083 8.625H14.875V4.79167H18.7083V8.625ZM19.6667 15.3333H17.75V13.4167C17.75 13.1625 17.649 12.9187 17.4693 12.739C17.2896 12.5593 17.0458 12.4583 16.7917 12.4583C16.5375 12.4583 16.2937 12.5593 16.114 12.739C15.9343 12.9187 15.8333 13.1625 15.8333 13.4167V15.3333H13.9167C13.6625 15.3333 13.4187 15.4343 13.239 15.614C13.0593 15.7937 12.9583 16.0375 12.9583 16.2917C12.9583 16.5458 13.0593 16.7896 13.239 16.9693C13.4187 17.149 13.6625 17.25 13.9167 17.25H15.8333V19.1667C15.8333 19.4208 15.9343 19.6646 16.114 19.8443C16.2937 20.024 16.5375 20.125 16.7917 20.125C17.0458 20.125 17.2896 20.024 17.4693 19.8443C17.649 19.6646 17.75 19.4208 17.75 19.1667V17.25H19.6667C19.9208 17.25 20.1646 17.149 20.3443 16.9693C20.524 16.7896 20.625 16.5458 20.625 16.2917C20.625 16.0375 20.524 15.7937 20.3443 15.614C20.1646 15.4343 19.9208 15.3333 19.6667 15.3333ZM10.0833 2.875H4.33333C4.07917 2.875 3.83541 2.97597 3.65569 3.15569C3.47597 3.33541 3.375 3.57917 3.375 3.83333V9.58333C3.375 9.8375 3.47597 10.0813 3.65569 10.261C3.83541 10.4407 4.07917 10.5417 4.33333 10.5417H10.0833C10.3375 10.5417 10.5813 10.4407 10.761 10.261C10.9407 10.0813 11.0417 9.8375 11.0417 9.58333V3.83333C11.0417 3.57917 10.9407 3.33541 10.761 3.15569C10.5813 2.97597 10.3375 2.875 10.0833 2.875ZM9.125 8.625H5.29167V4.79167H9.125V8.625Z" fill="black" fill-opacity="0.2"/>
<rect x="5.29169" y="14.375" width="4.79167" height="3.83333" fill="#646879"/>
<rect x="5.29169" y="14.375" width="4.79167" height="3.83333" fill="black" fill-opacity="0.2"/>
<rect x="5.29169" y="4.7915" width="4.79167" height="3.83333" fill="#646879"/>
<rect x="5.29169" y="4.7915" width="4.79167" height="3.83333" fill="black" fill-opacity="0.2"/>
<rect x="14.875" y="4.7915" width="4.79167" height="3.83333" fill="#646879"/>
<rect x="14.875" y="4.7915" width="4.79167" height="3.83333" fill="black" fill-opacity="0.2"/>
</svg>
