<svg width="16" height="18" viewBox="0 0 16 18" fill="none" xmlns="http://www.w3.org/2000/svg">
<path d="M6.52585 17.6997H4.82103C4.67031 17.6997 4.52577 17.604 4.4192 17.4338C4.31263 17.2635 4.25275 17.0326 4.25275 16.7918V9.52865C4.25275 9.28786 4.31263 9.05693 4.4192 8.88667C4.52577 8.71641 4.67031 8.62075 4.82103 8.62075H6.52585C6.67657 8.62075 6.82111 8.71641 6.92768 8.88667C7.03426 9.05693 7.09413 9.28786 7.09413 9.52865V16.7918C7.09413 17.0326 7.03426 17.2635 6.92768 17.4338C6.82111 17.604 6.67657 17.6997 6.52585 17.6997ZM10.5038 17.6997H8.79895C8.64824 17.6997 8.50369 17.604 8.39712 17.4338C8.29055 17.2635 8.23068 17.0326 8.23068 16.7918V1.3576C8.23068 1.11681 8.29055 0.885886 8.39712 0.715623C8.50369 0.54536 8.64824 0.449707 8.79895 0.449707H10.5038C10.6545 0.449707 10.799 0.54536 10.9056 0.715623C11.0122 0.885886 11.0721 1.11681 11.0721 1.3576V16.7918C11.0721 17.0326 11.0122 17.2635 10.9056 17.4338C10.799 17.604 10.6545 17.6997 10.5038 17.6997ZM14.4817 17.6997H12.7769C12.6262 17.6997 12.4816 17.604 12.375 17.4338C12.2685 17.2635 12.2086 17.0326 12.2086 16.7918V6.80497C12.2086 6.56418 12.2685 6.33325 12.375 6.16299C12.4816 5.99273 12.6262 5.89707 12.7769 5.89707H14.4817C14.6324 5.89707 14.777 5.99273 14.8835 6.16299C14.9901 6.33325 15.05 6.56418 15.05 6.80497V16.7918C15.05 17.0326 14.9901 17.2635 14.8835 17.4338C14.777 17.604 14.6324 17.6997 14.4817 17.6997Z" fill="#646879"/>
<path d="M6.52585 17.6997H4.82103C4.67031 17.6997 4.52577 17.604 4.4192 17.4338C4.31263 17.2635 4.25275 17.0326 4.25275 16.7918V9.52865C4.25275 9.28786 4.31263 9.05693 4.4192 8.88667C4.52577 8.71641 4.67031 8.62075 4.82103 8.62075H6.52585C6.67657 8.62075 6.82111 8.71641 6.92768 8.88667C7.03426 9.05693 7.09413 9.28786 7.09413 9.52865V16.7918C7.09413 17.0326 7.03426 17.2635 6.92768 17.4338C6.82111 17.604 6.67657 17.6997 6.52585 17.6997ZM10.5038 17.6997H8.79895C8.64824 17.6997 8.50369 17.604 8.39712 17.4338C8.29055 17.2635 8.23068 17.0326 8.23068 16.7918V1.3576C8.23068 1.11681 8.29055 0.885886 8.39712 0.715623C8.50369 0.54536 8.64824 0.449707 8.79895 0.449707H10.5038C10.6545 0.449707 10.799 0.54536 10.9056 0.715623C11.0122 0.885886 11.0721 1.11681 11.0721 1.3576V16.7918C11.0721 17.0326 11.0122 17.2635 10.9056 17.4338C10.799 17.604 10.6545 17.6997 10.5038 17.6997ZM14.4817 17.6997H12.7769C12.6262 17.6997 12.4816 17.604 12.375 17.4338C12.2685 17.2635 12.2086 17.0326 12.2086 16.7918V6.80497C12.2086 6.56418 12.2685 6.33325 12.375 6.16299C12.4816 5.99273 12.6262 5.89707 12.7769 5.89707H14.4817C14.6324 5.89707 14.777 5.99273 14.8835 6.16299C14.9901 6.33325 15.05 6.56418 15.05 6.80497V16.7918C15.05 17.0326 14.9901 17.2635 14.8835 17.4338C14.777 17.604 14.6324 17.6997 14.4817 17.6997Z" fill="black" fill-opacity="0.2"/>
<path d="M0.668251 17.6997H2.37308C2.52379 17.6997 2.66833 17.6041 2.77491 17.4338C2.88148 17.2635 2.94135 17.0326 2.94135 16.7918V6.07866C2.94135 5.83787 2.88148 5.60695 2.77491 5.43668C2.66833 5.26642 2.52379 5.17077 2.37308 5.17077H0.668251C0.517535 5.17077 0.372991 5.26642 0.266419 5.43668C0.159847 5.60695 0.0999756 5.83787 0.0999756 6.07866V16.7918C0.0999756 17.0326 0.159847 17.2635 0.266419 17.4338C0.372991 17.6041 0.517535 17.6997 0.668251 17.6997Z" fill="#646879"/>
<path d="M0.668251 17.6997H2.37308C2.52379 17.6997 2.66833 17.6041 2.77491 17.4338C2.88148 17.2635 2.94135 17.0326 2.94135 16.7918V6.07866C2.94135 5.83787 2.88148 5.60695 2.77491 5.43668C2.66833 5.26642 2.52379 5.17077 2.37308 5.17077H0.668251C0.517535 5.17077 0.372991 5.26642 0.266419 5.43668C0.159847 5.60695 0.0999756 5.83787 0.0999756 6.07866V16.7918C0.0999756 17.0326 0.159847 17.2635 0.266419 17.4338C0.372991 17.6041 0.517535 17.6997 0.668251 17.6997Z" fill="black" fill-opacity="0.2"/>
</svg>
