<svg width="24" height="23" viewBox="0 0 24 23" fill="none" xmlns="http://www.w3.org/2000/svg">
<g clip-path="url(#clip0_14749_659)">
<path d="M5.86668 14.1834C6.37501 14.1834 6.86252 13.9815 7.22197 13.6221C7.58141 13.2626 7.78335 12.7751 7.78335 12.2668C7.78335 11.7584 7.58141 11.2709 7.22197 10.9115C6.86252 10.552 6.37501 10.3501 5.86668 10.3501C5.35835 10.3501 4.87084 10.552 4.51139 10.9115C4.15195 11.2709 3.95001 11.7584 3.95001 12.2668C3.95001 12.7751 4.15195 13.2626 4.51139 13.6221C4.87084 13.9815 5.35835 14.1834 5.86668 14.1834ZM12.575 14.1834C13.0833 14.1834 13.5709 13.9815 13.9303 13.6221C14.2897 13.2626 14.4917 12.7751 14.4917 12.2668C14.4917 11.7584 14.2897 11.2709 13.9303 10.9115C13.5709 10.552 13.0833 10.3501 12.575 10.3501C12.0667 10.3501 11.5792 10.552 11.2197 10.9115C10.8603 11.2709 10.6583 11.7584 10.6583 12.2668C10.6583 12.7751 10.8603 13.2626 11.2197 13.6221C11.5792 13.9815 12.0667 14.1834 12.575 14.1834ZM21.2 12.2668C21.2 12.7751 20.9981 13.2626 20.6386 13.6221C20.2792 13.9815 19.7917 14.1834 19.2833 14.1834C18.775 14.1834 18.2875 13.9815 17.9281 13.6221C17.5686 13.2626 17.3667 12.7751 17.3667 12.2668C17.3667 11.7584 17.5686 11.2709 17.9281 10.9115C18.2875 10.552 18.775 10.3501 19.2833 10.3501C19.7917 10.3501 20.2792 10.552 20.6386 10.9115C20.9981 11.2709 21.2 11.7584 21.2 12.2668Z" fill="#646879"/>
<path d="M5.86668 14.1834C6.37501 14.1834 6.86252 13.9815 7.22197 13.6221C7.58141 13.2626 7.78335 12.7751 7.78335 12.2668C7.78335 11.7584 7.58141 11.2709 7.22197 10.9115C6.86252 10.552 6.37501 10.3501 5.86668 10.3501C5.35835 10.3501 4.87084 10.552 4.51139 10.9115C4.15195 11.2709 3.95001 11.7584 3.95001 12.2668C3.95001 12.7751 4.15195 13.2626 4.51139 13.6221C4.87084 13.9815 5.35835 14.1834 5.86668 14.1834ZM12.575 14.1834C13.0833 14.1834 13.5709 13.9815 13.9303 13.6221C14.2897 13.2626 14.4917 12.7751 14.4917 12.2668C14.4917 11.7584 14.2897 11.2709 13.9303 10.9115C13.5709 10.552 13.0833 10.3501 12.575 10.3501C12.0667 10.3501 11.5792 10.552 11.2197 10.9115C10.8603 11.2709 10.6583 11.7584 10.6583 12.2668C10.6583 12.7751 10.8603 13.2626 11.2197 13.6221C11.5792 13.9815 12.0667 14.1834 12.575 14.1834ZM21.2 12.2668C21.2 12.7751 20.9981 13.2626 20.6386 13.6221C20.2792 13.9815 19.7917 14.1834 19.2833 14.1834C18.775 14.1834 18.2875 13.9815 17.9281 13.6221C17.5686 13.2626 17.3667 12.7751 17.3667 12.2668C17.3667 11.7584 17.5686 11.2709 17.9281 10.9115C18.2875 10.552 18.775 10.3501 19.2833 10.3501C19.7917 10.3501 20.2792 10.552 20.6386 10.9115C20.9981 11.2709 21.2 11.7584 21.2 12.2668Z" fill="black" fill-opacity="0.2"/>
</g>
<defs>
<clipPath id="clip0_14749_659">
<rect width="23" height="23" fill="white" transform="translate(0.5)"/>
</clipPath>
</defs>
</svg>
