<svg width="23" height="23" viewBox="0 0 23 23" fill="none" xmlns="http://www.w3.org/2000/svg">
<path d="M19.5833 12.4585L21.0833 13.8114L14.0933 20.1252L9.58331 16.0663L11.0833 14.7134L14.0933 17.4193L19.5833 12.4585Z" fill="#646879"/>
<path d="M19.5833 12.4585L21.0833 13.8114L14.0933 20.1252L9.58331 16.0663L11.0833 14.7134L14.0933 17.4193L19.5833 12.4585Z" fill="black" fill-opacity="0.2"/>
<path opacity="0.3" d="M15.3333 5.75V8.625H5.74998V5.75H3.83331V19.1667H10.235L6.87123 15.8125L11.0208 11.6629L13.9054 14.5379L17.25 11.1838V5.75H15.3333Z" fill="white"/>
<path d="M3.83332 19.1665V5.74984H5.74999V8.62484H15.3333V5.74984H17.25V11.1836L19.1667 9.26692V5.74984C19.1667 4.69567 18.3042 3.83317 17.25 3.83317H13.2442C12.8417 2.7215 11.7875 1.9165 10.5417 1.9165C9.29582 1.9165 8.24166 2.7215 7.83916 3.83317H3.83332C2.77916 3.83317 1.91666 4.69567 1.91666 5.74984V19.1665C1.91666 20.2207 2.77916 21.0832 3.83332 21.0832H12.1517L10.235 19.1665H3.83332ZM10.5417 3.83317C11.0687 3.83317 11.5 4.26442 11.5 4.7915C11.5 5.31859 11.0687 5.74984 10.5417 5.74984C10.0146 5.74984 9.58332 5.31859 9.58332 4.7915C9.58332 4.26442 10.0146 3.83317 10.5417 3.83317Z" fill="#646879"/>
<path d="M3.83332 19.1665V5.74984H5.74999V8.62484H15.3333V5.74984H17.25V11.1836L19.1667 9.26692V5.74984C19.1667 4.69567 18.3042 3.83317 17.25 3.83317H13.2442C12.8417 2.7215 11.7875 1.9165 10.5417 1.9165C9.29582 1.9165 8.24166 2.7215 7.83916 3.83317H3.83332C2.77916 3.83317 1.91666 4.69567 1.91666 5.74984V19.1665C1.91666 20.2207 2.77916 21.0832 3.83332 21.0832H12.1517L10.235 19.1665H3.83332ZM10.5417 3.83317C11.0687 3.83317 11.5 4.26442 11.5 4.7915C11.5 5.31859 11.0687 5.74984 10.5417 5.74984C10.0146 5.74984 9.58332 5.31859 9.58332 4.7915C9.58332 4.26442 10.0146 3.83317 10.5417 3.83317Z" fill="black" fill-opacity="0.2"/>
</svg>
