<svg width="24" height="23" viewBox="0 0 24 23" fill="none" xmlns="http://www.w3.org/2000/svg">
<path fill-rule="evenodd" clip-rule="evenodd" d="M22.5346 7.0418C22.5395 7.09937 22.5395 7.15719 22.5346 7.21476C22.544 7.26904 22.544 7.32433 22.5346 7.37861C22.5304 8.01406 22.3425 8.63743 21.9895 9.18679C21.6366 9.73614 21.1309 10.1923 20.5228 10.5101V19.2126C20.5228 19.454 20.4168 19.6855 20.2282 19.8563C20.0396 20.027 19.7837 20.1229 19.5169 20.1229H5.43438C5.1676 20.1229 4.91174 20.027 4.7231 19.8563C4.53446 19.6855 4.42848 19.454 4.42848 19.2126V10.4737C3.82619 10.1591 3.32427 9.7086 2.97169 9.16616C2.6191 8.62373 2.42788 8.00785 2.41669 7.37861C2.42987 7.32082 2.45367 7.26543 2.4871 7.21476C2.48225 7.15719 2.48225 7.09937 2.4871 7.0418L4.49889 2.49028C4.57343 2.3209 4.70246 2.17568 4.86925 2.07343C5.03604 1.97118 5.23292 1.91661 5.43438 1.91678H19.5169C19.7302 1.90324 19.9426 1.95154 20.1235 2.05466C20.3044 2.15778 20.4443 2.31036 20.5228 2.49028L22.5346 7.0418ZM11.4698 14.6611V18.3023H13.4815V14.6611H11.4698ZM15.1242 13.046V12.9377H14.9399C15.0052 12.9675 15.067 13.0037 15.1242 13.046ZM17.0885 8.66598C17.4658 9.00741 17.9775 9.19922 18.511 9.19922C19.0195 9.20052 19.5096 9.02756 19.8828 8.71513C20.256 8.4027 20.4847 7.97397 20.5228 7.51516L18.8329 3.73739H6.11839L4.42848 7.51516C4.43839 7.75425 4.50023 7.98922 4.61049 8.20668C4.72074 8.42414 4.87725 8.61981 5.07107 8.78253C5.4625 9.11116 5.98215 9.2856 6.51572 9.2675C6.77991 9.25853 7.03956 9.20256 7.27985 9.10278C7.52014 9.00301 7.73636 8.86137 7.91617 8.68598C8.09598 8.51058 8.23585 8.30485 8.3278 8.08053C8.41975 7.85621 8.46197 7.6177 8.45207 7.37861C8.45207 7.13719 8.55804 6.90565 8.74669 6.73493C8.93533 6.56422 9.19118 6.46831 9.45796 6.46831C9.72474 6.46831 9.9806 6.56422 10.1692 6.73493C10.3579 6.90565 10.4639 7.13719 10.4639 7.37861C10.4639 7.86147 10.6758 8.32455 11.0531 8.66598C11.4304 9.00741 11.9421 9.19922 12.4757 9.19922C13.0092 9.19922 13.5209 9.00741 13.8982 8.66598C14.2755 8.32455 14.4874 7.86147 14.4874 7.37861C14.4874 7.13719 14.5934 6.90565 14.7821 6.73493C14.9707 6.56422 15.2266 6.46831 15.4933 6.46831C15.7601 6.46831 16.016 6.56422 16.2046 6.73493C16.3933 6.90565 16.4992 7.13719 16.4992 7.37861C16.4992 7.86147 16.7112 8.32455 17.0885 8.66598Z" fill="#646879"/>
<path fill-rule="evenodd" clip-rule="evenodd" d="M22.5346 7.0418C22.5395 7.09937 22.5395 7.15719 22.5346 7.21476C22.544 7.26904 22.544 7.32433 22.5346 7.37861C22.5304 8.01406 22.3425 8.63743 21.9895 9.18679C21.6366 9.73614 21.1309 10.1923 20.5228 10.5101V19.2126C20.5228 19.454 20.4168 19.6855 20.2282 19.8563C20.0396 20.027 19.7837 20.1229 19.5169 20.1229H5.43438C5.1676 20.1229 4.91174 20.027 4.7231 19.8563C4.53446 19.6855 4.42848 19.454 4.42848 19.2126V10.4737C3.82619 10.1591 3.32427 9.7086 2.97169 9.16616C2.6191 8.62373 2.42788 8.00785 2.41669 7.37861C2.42987 7.32082 2.45367 7.26543 2.4871 7.21476C2.48225 7.15719 2.48225 7.09937 2.4871 7.0418L4.49889 2.49028C4.57343 2.3209 4.70246 2.17568 4.86925 2.07343C5.03604 1.97118 5.23292 1.91661 5.43438 1.91678H19.5169C19.7302 1.90324 19.9426 1.95154 20.1235 2.05466C20.3044 2.15778 20.4443 2.31036 20.5228 2.49028L22.5346 7.0418ZM11.4698 14.6611V18.3023H13.4815V14.6611H11.4698ZM15.1242 13.046V12.9377H14.9399C15.0052 12.9675 15.067 13.0037 15.1242 13.046ZM17.0885 8.66598C17.4658 9.00741 17.9775 9.19922 18.511 9.19922C19.0195 9.20052 19.5096 9.02756 19.8828 8.71513C20.256 8.4027 20.4847 7.97397 20.5228 7.51516L18.8329 3.73739H6.11839L4.42848 7.51516C4.43839 7.75425 4.50023 7.98922 4.61049 8.20668C4.72074 8.42414 4.87725 8.61981 5.07107 8.78253C5.4625 9.11116 5.98215 9.2856 6.51572 9.2675C6.77991 9.25853 7.03956 9.20256 7.27985 9.10278C7.52014 9.00301 7.73636 8.86137 7.91617 8.68598C8.09598 8.51058 8.23585 8.30485 8.3278 8.08053C8.41975 7.85621 8.46197 7.6177 8.45207 7.37861C8.45207 7.13719 8.55804 6.90565 8.74669 6.73493C8.93533 6.56422 9.19118 6.46831 9.45796 6.46831C9.72474 6.46831 9.9806 6.56422 10.1692 6.73493C10.3579 6.90565 10.4639 7.13719 10.4639 7.37861C10.4639 7.86147 10.6758 8.32455 11.0531 8.66598C11.4304 9.00741 11.9421 9.19922 12.4757 9.19922C13.0092 9.19922 13.5209 9.00741 13.8982 8.66598C14.2755 8.32455 14.4874 7.86147 14.4874 7.37861C14.4874 7.13719 14.5934 6.90565 14.7821 6.73493C14.9707 6.56422 15.2266 6.46831 15.4933 6.46831C15.7601 6.46831 16.016 6.56422 16.2046 6.73493C16.3933 6.90565 16.4992 7.13719 16.4992 7.37861C16.4992 7.86147 16.7112 8.32455 17.0885 8.66598Z" fill="black" fill-opacity="0.2"/>
</svg>
